<?xml version="1.0" encoding="UTF-8" standalone="no"?>
<svg
   version="1.0"
   width="2637.375mm"
   height="294.22513mm"
   id="svg10"
   sodipodi:docname="image2.emf"
   xmlns:inkscape="http://www.inkscape.org/namespaces/inkscape"
   xmlns:sodipodi="http://sodipodi.sourceforge.net/DTD/sodipodi-0.dtd"
   xmlns="http://www.w3.org/2000/svg"
   xmlns:svg="http://www.w3.org/2000/svg">
  <sodipodi:namedview
     id="namedview10"
     pagecolor="#ffffff"
     bordercolor="#000000"
     borderopacity="0.25"
     inkscape:showpageshadow="2"
     inkscape:pageopacity="0.0"
     inkscape:pagecheckerboard="0"
     inkscape:deskcolor="#d1d1d1"
     inkscape:document-units="mm" />
  <defs
     id="defs1">
    <pattern
       id="EMFhbasepattern"
       patternUnits="userSpaceOnUse"
       width="6"
       height="6"
       x="0"
       y="0" />
  </defs>
  <path
     style="fill:#00893d;fill-rule:nonzero;fill-opacity:1;stroke:none;"
     d="  M 9865,943.66667   C 9865,703.66667 9865,703.66667 9865,703.66667   C 9865,638.66667 9854.6667,563.33333 9734,534   C 9734,531 9734,531 9734,531   C 9846,483.66667 9900.6667,413 9900.6667,289.33333   C 9900.6667,273 9902,206.66667 9853.3333,144.66667   C 9753,12 9597,23.666667 9524.6667,23.666667   C 9067.6667,23.666667 9067.6667,23.666667 9067.6667,23.666667   C 9067.6667,168.33333 9067.6667,168.33333 9067.6667,168.33333   C 9181,168.33333 9181,168.33333 9181,168.33333   C 9181,943.66667 9181,943.66667 9181,943.66667   C 9067.6667,943.66667 9067.6667,943.66667 9067.6667,943.66667   C 9067.6667,1088.3333 9067.6667,1088.3333 9067.6667,1088.3333   C 9490.6667,1088.3333 9490.6667,1088.3333 9490.6667,1088.3333   C 9490.6667,943.66667 9490.6667,943.66667 9490.6667,943.66667   C 9372.6667,943.66667 9372.6667,943.66667 9372.6667,943.66667   C 9372.6667,604.66667 9372.6667,604.66667 9372.6667,604.66667   C 9487.6667,604.66667 9487.6667,604.66667 9487.6667,604.66667   C 9566,604.66667 9673.3333,615 9673.3333,715   C 9673.3333,1088.3333 9673.3333,1088.3333 9673.3333,1088.3333   C 9968.3333,1088.3333 9968.3333,1088.3333 9968.3333,1088.3333   C 9968.3333,943.66667 9968.3333,943.66667 9968.3333,943.66667   z  M 9496.3333,460.33333   C 9372.6667,460.33333 9372.6667,460.33333 9372.6667,460.33333   C 9372.6667,168.33333 9372.6667,168.33333 9372.6667,168.33333   C 9474.6667,168.33333 9474.6667,168.33333 9474.6667,168.33333   C 9574.6667,168.33333 9708.6667,168.33333 9708.6667,299.33333   C 9708.6667,442.33333 9602.6667,460.33333 9496.3333,460.33333   z "
     id="path1" />
  <path
     style="fill:#00893d;fill-rule:nonzero;fill-opacity:1;stroke:none;"
     d="  M 8896.3333,1088.3333   L 8896.3333,769.66667   L 8727,769.66667   L 8727,943.66667   L 8382.3333,943.66667   L 8382.3333,604.66667   L 8678.3333,604.66667   L 8678.3333,436.66667   L 8382.3333,436.66667   L 8382.3333,168.33333   L 8727,168.33333   L 8727,305.33333   L 8896.3333,305.33333   L 8896.3333,23.666667   L 8077,23.666667   L 8077,168.33333   L 8190.6667,168.33333   L 8190.6667,943.66667   L 8077,943.66667   L 8077,1088.3333   L 8896.3333,1088.3333  z   "
     id="path2" />
  <path
     style="fill:#00893d;fill-rule:nonzero;fill-opacity:1;stroke:none;"
     d="  M 7971,1088.3333   L 7971,772.66667   L 7801.3333,772.66667   L 7801.3333,943.66667   L 7547.6667,943.66667   L 7547.6667,168.33333   L 7677.6667,168.33333   L 7677.6667,23.666667   L 7236.6667,23.666667   L 7236.6667,168.33333   L 7356,168.33333   L 7356,943.66667   L 7236.6667,943.66667   L 7236.6667,1088.3333   L 7971,1088.3333  z   "
     id="path3" />
  <path
     style="fill:#00893d;fill-rule:nonzero;fill-opacity:1;stroke:none;"
     d="  M 6669.3333,1088.3333   L 6669.3333,943.66667   L 6544,943.66667   L 6544,604.66667   L 6863.6667,604.66667   L 6863.6667,436.66667   L 6544,436.66667   L 6544,168.33333   L 6900.6667,168.33333   L 6900.6667,305.33333   L 7070,305.33333   L 7070,23.666667   L 6238.6667,23.666667   L 6238.6667,168.33333   L 6352.3333,168.33333   L 6352.3333,943.66667   L 6238.6667,943.66667   L 6238.6667,1088.3333   L 6669.3333,1088.3333  z   "
     id="path4" />
  <path
     style="fill:#00893d;fill-rule:nonzero;fill-opacity:1;stroke:none;"
     d="  M 5709.6667,1088.3333   L 5709.6667,943.66667   L 5584.3333,943.66667   L 5584.3333,604.66667   L 5904,604.66667   L 5904,436.66667   L 5584.3333,436.66667   L 5584.3333,168.33333   L 5941,168.33333   L 5941,305.33333   L 6110.6667,305.33333   L 6110.6667,23.666667   L 5279,23.666667   L 5279,168.33333   L 5392.6667,168.33333   L 5392.6667,943.66667   L 5279,943.66667   L 5279,1088.3333   L 5709.6667,1088.3333  z   "
     id="path5" />
  <path
     style="fill:#00893d;fill-rule:nonzero;fill-opacity:1;stroke:none;"
     d="  M 5080,1088.3333   L 5080,769.66667   L 4910.6667,769.66667   L 4910.6667,943.66667   L 4565.6667,943.66667   L 4565.6667,604.66667   L 4862,604.66667   L 4862,436.66667   L 4565.6667,436.66667   L 4565.6667,168.33333   L 4910.6667,168.33333   L 4910.6667,305.33333   L 5080,305.33333   L 5080,23.666667   L 4260.6667,23.666667   L 4260.6667,168.33333   L 4374,168.33333   L 4374,943.66667   L 4260.6667,943.66667   L 4260.6667,1088.3333   L 5080,1088.3333  z   "
     id="path6" />
  <path
     style="fill:#00893d;fill-rule:nonzero;fill-opacity:1;stroke:none;"
     d="  M 4023,943.66667   L 3765.3333,168.33333   L 3880.3333,168.33333   L 3880.3333,23.666667   L 3330.3333,23.666667   L 3330.3333,168.33333   L 3446.6667,168.33333   L 3181.3333,943.66667   L 3094.3333,943.66667   L 3094.3333,1088.3333   L 3476.3333,1088.3333   L 3476.3333,943.66667   L 3361.3333,943.66667   L 3433.6667,736   L 3756.3333,736   L 3828.6667,943.66667   L 3712.3333,943.66667   L 3712.3333,1088.3333   L 4104.3333,1088.3333   L 4104.3333,943.66667   L 4023,943.66667  z    M 3474.6667,591.33333   L 3597.3333,231.66667   L 3600,231.66667   L 3719.3333,591.33333   L 3474.6667,591.33333  z   "
     id="path7" />
  <path
     style="fill:#00893d;fill-rule:nonzero;fill-opacity:1;stroke:none;"
     d="  M 2400.3333,1088.3333   L 2400.3333,943.66667   L 2286.6667,943.66667   L 2286.6667,604.66667   L 2667,604.66667   L 2667,943.66667   L 2553.3333,943.66667   L 2553.3333,1088.3333   L 2972.3333,1088.3333   L 2972.3333,943.66667   L 2858.6667,943.66667   L 2858.6667,168.33333   L 2972.3333,168.33333   L 2972.3333,23.666667   L 2553.3333,23.666667   L 2553.3333,168.33333   L 2667,168.33333   L 2667,436.66667   L 2286.6667,436.66667   L 2286.6667,168.33333   L 2400.3333,168.33333   L 2400.3333,23.666667   L 1981.3333,23.666667   L 1981.3333,168.33333   L 2095,168.33333   L 2095,943.66667   L 1981.3333,943.66667   L 1981.3333,1088.3333   L 2400.3333,1088.3333  z   "
     id="path8" />
  <path
     style="fill:#00893d;fill-rule:nonzero;fill-opacity:1;stroke:none;"
     d="  M 1825.3333,369   C 1825.3333,23.666667 1825.3333,23.666667 1825.3333,23.666667   C 1670.3333,23.666667 1670.3333,23.666667 1670.3333,23.666667   C 1670.3333,91.666667 1670.3333,91.666667 1670.3333,91.666667   C 1585,10.666667 1425.6667,0.33333333 1392,0.33333333   C 1136.6667,0.33333333 852.33333,175.66667 852.33333,550   C 852.33333,868.66667 1087,1111.6667 1393.3333,1111.6667   C 1624.6667,1111.6667 1810.3333,989.33333 1872.3333,734.33333   C 1695.6667,734.33333 1695.6667,734.33333 1695.6667,734.33333   C 1636.6667,852.33333 1552.6667,935 1393.3333,935   C 1168,935 1044,759.33333 1044,556   C 1044,351 1170.6667,177 1393.3333,177   C 1453.6667,177 1515.6667,195 1565.6667,228.66667   C 1616,261 1655.6667,308.33333 1670.3333,369   z "
     id="path9" />
  <path
     style="fill:#00893d;fill-rule:nonzero;fill-opacity:1;stroke:none;"
     d="  M 9.3333333,724   C 9.3333333,1088.3333 9.3333333,1088.3333 9.3333333,1088.3333   C 164,1088.3333 164,1088.3333 164,1088.3333   C 164,1021.6667 164,1021.6667 164,1021.6667   C 240.66667,1085.3333 330.66667,1111.6667 429.33333,1111.6667   C 624,1111.6667 767,980.66667 767,781.66667   C 767,551.66667 625.33333,498.66667 481,455.66667   C 336.33333,413 192,394 192,292   C 192,200.66667 253.66667,147.66667 341,147.66667   C 400,147.66667 448.66667,168.33333 485.33333,203.66667   C 520.66667,237.66667 545.66667,286 557.66667,342.33333   C 705,342.33333 705,342.33333 705,342.33333   C 705,23.666667 705,23.666667 705,23.666667   C 550,23.666667 550,23.666667 550,23.666667   C 550,90.333333 550,90.333333 550,90.333333   C 492.66667,35.666667 414.66667,0.33333333 332,0.33333333   C 82.666667,0.33333333 0.33333333,195 0.33333333,293.66667   C 0.33333333,569.33333 242,598.66667 286.33333,612   C 463.33333,665 575.33333,663.66667 575.33333,808   C 575.33333,896.33333 500,964.33333 414.66667,964.33333   C 270.33333,964.33333 175.66667,864 158,724   z "
     id="path10" />
</svg>
